<svg width="524" height="643" viewBox="0 0 524 643" fill="none" xmlns="http://www.w3.org/2000/svg">
<circle cx="262" cy="200" r="120" fill="#F6F7FA"/>
<path d="M260.334 399.996C150.645 399.231 62.4002 310.243 62.5558 200.553C70.4916 256.758 162.346 297.749 260.334 256.758C344.328 221.621 385.529 183.335 462 200.553C462.157 311.009 370.788 400.766 260.334 399.996Z" fill="#B0E6FE"/>
<path d="M422 199.998C422 288.361 350.366 359.995 262 359.995C173.634 359.995 102 288.361 102 199.998C102 111.634 173.634 40 262 40C350.366 40 422 111.634 422 199.998Z" stroke="url(#paint0_linear_273_132)" stroke-width="80"/>
<g style="mix-blend-mode:darken">
<path d="M260.334 399.996C150.645 399.231 62.4002 310.243 62.5558 200.553C70.4916 256.758 162.346 297.749 260.334 256.758C344.328 221.621 385.529 183.335 462 200.553C462.157 311.009 370.788 400.766 260.334 399.996Z" fill="#B0E6FE"/>
<path d="M263.111 399.996C372.802 399.996 462.156 310.243 462 200.553C454.064 256.758 361.099 297.749 263.111 256.758C179.117 221.621 138.471 183.335 61.9998 200.553C61.9998 308 149.5 399.996 263.111 399.996Z" fill="#51C6FB"/>
<path d="M263.006 400.193C352.09 400.193 410 343 430.5 308C333.653 404.847 140 141 71.009 259.658C89 319.5 152.549 400.193 263.006 400.193Z" fill="#3D7EF9"/>
<path d="M263.111 399.995C301.64 399.995 335 390 365.5 371.5C303.5 382.5 199.5 194 90.5 303C142 386 220.5 399.995 263.111 399.995Z" fill="#336CFF"/>
</g>
<path d="M32.1164 543.44C27.0604 543.44 22.8204 542.24 19.3964 539.84C15.9724 537.44 13.3964 534.176 11.6684 530.048C9.94038 525.888 9.07638 521.232 9.07638 516.08C9.07638 510.864 9.94038 506.192 11.6684 502.064C13.3964 497.936 15.9244 494.688 19.2524 492.32C22.6124 489.92 26.7564 488.72 31.6844 488.72C36.5804 488.72 40.8204 489.92 44.4044 492.32C48.0204 494.688 50.8204 497.936 52.8044 502.064C54.7884 506.16 55.7804 510.832 55.7804 516.08C55.7804 521.264 54.8044 525.92 52.8524 530.048C50.9004 534.176 48.1484 537.44 44.5964 539.84C41.0444 542.24 36.8844 543.44 32.1164 543.44ZM7.10838 565.04V490.16H17.3324V526.544H18.7724V565.04H7.10838ZM30.3404 533.072C33.3484 533.072 35.8284 532.32 37.7804 530.816C39.7324 529.312 41.1724 527.28 42.1004 524.72C43.0604 522.128 43.5404 519.248 43.5404 516.08C43.5404 512.944 43.0604 510.096 42.1004 507.536C41.1404 504.944 39.6524 502.896 37.6364 501.392C35.6204 499.856 33.0604 499.088 29.9564 499.088C27.0124 499.088 24.6124 499.808 22.7564 501.248C20.9004 502.656 19.5244 504.64 18.6284 507.2C17.7644 509.728 17.3324 512.688 17.3324 516.08C17.3324 519.44 17.7644 522.4 18.6284 524.96C19.5244 527.52 20.9164 529.52 22.8044 530.96C24.7244 532.368 27.2364 533.072 30.3404 533.072ZM67.3206 542V471.44H78.8886V542H67.3206ZM107.763 543.44C104.019 543.44 100.851 542.736 98.2589 541.328C95.6669 539.888 93.6989 537.984 92.3549 535.616C91.0429 533.248 90.3869 530.64 90.3869 527.792C90.3869 525.296 90.8029 523.056 91.6349 521.072C92.4669 519.056 93.7469 517.328 95.4749 515.888C97.2029 514.416 99.4429 513.216 102.195 512.288C104.275 511.616 106.707 511.008 109.491 510.464C112.307 509.92 115.347 509.424 118.611 508.976C121.907 508.496 125.347 507.984 128.931 507.44L124.803 509.792C124.835 506.208 124.035 503.568 122.403 501.872C120.771 500.176 118.019 499.328 114.147 499.328C111.811 499.328 109.555 499.872 107.379 500.96C105.203 502.048 103.683 503.92 102.819 506.576L92.2589 503.264C93.5389 498.88 95.9709 495.36 99.5549 492.704C103.171 490.048 108.035 488.72 114.147 488.72C118.755 488.72 122.803 489.472 126.291 490.976C129.811 492.48 132.419 494.944 134.115 498.368C135.043 500.192 135.603 502.064 135.795 503.984C135.987 505.872 136.083 507.936 136.083 510.176V542H125.955V530.768L127.635 532.592C125.299 536.336 122.563 539.088 119.427 540.848C116.323 542.576 112.435 543.44 107.763 543.44ZM110.067 534.224C112.691 534.224 114.931 533.76 116.787 532.832C118.643 531.904 120.115 530.768 121.203 529.424C122.323 528.08 123.075 526.816 123.459 525.632C124.067 524.16 124.403 522.48 124.467 520.592C124.563 518.672 124.611 517.12 124.611 515.936L128.163 516.992C124.675 517.536 121.683 518.016 119.187 518.432C116.691 518.848 114.547 519.248 112.755 519.632C110.963 519.984 109.379 520.384 108.003 520.832C106.659 521.312 105.523 521.872 104.595 522.512C103.667 523.152 102.947 523.888 102.435 524.72C101.955 525.552 101.715 526.528 101.715 527.648C101.715 528.928 102.035 530.064 102.675 531.056C103.315 532.016 104.243 532.784 105.459 533.36C106.707 533.936 108.243 534.224 110.067 534.224ZM184.435 542V517.04C184.435 515.408 184.323 513.6 184.099 511.616C183.875 509.632 183.347 507.728 182.515 505.904C181.715 504.048 180.499 502.528 178.867 501.344C177.267 500.16 175.091 499.568 172.339 499.568C170.867 499.568 169.411 499.808 167.971 500.288C166.531 500.768 165.219 501.6 164.035 502.784C162.883 503.936 161.955 505.536 161.251 507.584C160.547 509.6 160.195 512.192 160.195 515.36L153.331 512.432C153.331 508.016 154.179 504.016 155.875 500.432C157.603 496.848 160.131 494 163.459 491.888C166.787 489.744 170.883 488.672 175.747 488.672C179.587 488.672 182.755 489.312 185.251 490.592C187.747 491.872 189.731 493.504 191.203 495.488C192.675 497.472 193.763 499.584 194.467 501.824C195.171 504.064 195.619 506.192 195.811 508.208C196.035 510.192 196.147 511.808 196.147 513.056V542H184.435ZM148.483 542V490.16H158.803V506.24H160.195V542H148.483ZM231.397 543.44C226.149 543.44 221.541 542.304 217.573 540.032C213.605 537.76 210.501 534.608 208.261 530.576C206.053 526.544 204.949 521.904 204.949 516.656C204.949 510.992 206.037 506.08 208.213 501.92C210.389 497.728 213.413 494.48 217.285 492.176C221.157 489.872 225.637 488.72 230.725 488.72C236.101 488.72 240.661 489.984 244.405 492.512C248.181 495.008 250.981 498.544 252.805 503.12C254.629 507.696 255.317 513.088 254.869 519.296H243.397V515.072C243.365 509.44 242.373 505.328 240.421 502.736C238.469 500.144 235.397 498.848 231.205 498.848C226.469 498.848 222.949 500.32 220.645 503.264C218.341 506.176 217.189 510.448 217.189 516.08C217.189 521.328 218.341 525.392 220.645 528.272C222.949 531.152 226.309 532.592 230.725 532.592C233.573 532.592 236.021 531.968 238.069 530.72C240.149 529.44 241.749 527.6 242.869 525.2L254.293 528.656C252.309 533.328 249.237 536.96 245.077 539.552C240.949 542.144 236.389 543.44 231.397 543.44ZM213.541 519.296V510.56H249.205V519.296H213.541ZM295.963 542C292.539 542.64 289.179 542.912 285.883 542.816C282.619 542.752 279.691 542.16 277.099 541.04C274.507 539.888 272.539 538.08 271.195 535.616C270.011 533.376 269.387 531.088 269.323 528.752C269.259 526.416 269.227 523.776 269.227 520.832V475.76H280.747V520.16C280.747 522.24 280.763 524.064 280.795 525.632C280.859 527.2 281.195 528.48 281.803 529.472C282.955 531.392 284.795 532.464 287.323 532.688C289.851 532.912 292.731 532.784 295.963 532.304V542ZM259.819 499.232V490.16H295.963V499.232H259.819ZM351.241 543.44C346.185 543.44 341.945 542.24 338.521 539.84C335.097 537.44 332.521 534.176 330.793 530.048C329.065 525.888 328.201 521.232 328.201 516.08C328.201 510.864 329.065 506.192 330.793 502.064C332.521 497.936 335.049 494.688 338.377 492.32C341.737 489.92 345.881 488.72 350.809 488.72C355.705 488.72 359.945 489.92 363.529 492.32C367.145 494.688 369.945 497.936 371.929 502.064C373.913 506.16 374.905 510.832 374.905 516.08C374.905 521.264 373.929 525.92 371.977 530.048C370.025 534.176 367.273 537.44 363.721 539.84C360.169 542.24 356.009 543.44 351.241 543.44ZM326.233 542V472.88H337.897V505.616H336.457V542H326.233ZM349.465 533.072C352.473 533.072 354.953 532.32 356.905 530.816C358.857 529.312 360.297 527.28 361.225 524.72C362.185 522.128 362.665 519.248 362.665 516.08C362.665 512.944 362.185 510.096 361.225 507.536C360.265 504.944 358.777 502.896 356.761 501.392C354.745 499.856 352.185 499.088 349.081 499.088C346.137 499.088 343.737 499.808 341.881 501.248C340.025 502.656 338.649 504.64 337.753 507.2C336.889 509.728 336.457 512.688 336.457 516.08C336.457 519.44 336.889 522.4 337.753 524.96C338.649 527.52 340.041 529.52 341.929 530.96C343.849 532.368 346.361 533.072 349.465 533.072ZM386.446 542V471.44H398.014V542H386.446ZM431.832 543.488C427.992 543.488 424.824 542.848 422.328 541.568C419.832 540.288 417.848 538.656 416.376 536.672C414.904 534.688 413.816 532.576 413.112 530.336C412.408 528.096 411.944 525.984 411.72 524C411.528 521.984 411.432 520.352 411.432 519.104V490.16H423.144V515.12C423.144 516.72 423.256 518.528 423.48 520.544C423.704 522.528 424.216 524.448 425.016 526.304C425.848 528.128 427.064 529.632 428.664 530.816C430.296 532 432.488 532.592 435.24 532.592C436.712 532.592 438.168 532.352 439.608 531.872C441.048 531.392 442.344 530.576 443.496 529.424C444.68 528.24 445.624 526.624 446.328 524.576C447.032 522.528 447.384 519.936 447.384 516.8L454.248 519.728C454.248 524.144 453.384 528.144 451.656 531.728C449.96 535.312 447.448 538.176 444.12 540.32C440.792 542.432 436.696 543.488 431.832 543.488ZM448.776 542V525.92H447.384V490.16H459V542H448.776ZM496.054 543.44C490.806 543.44 486.198 542.304 482.23 540.032C478.262 537.76 475.158 534.608 472.918 530.576C470.71 526.544 469.606 521.904 469.606 516.656C469.606 510.992 470.694 506.08 472.87 501.92C475.046 497.728 478.07 494.48 481.942 492.176C485.814 489.872 490.294 488.72 495.382 488.72C500.758 488.72 505.318 489.984 509.062 492.512C512.838 495.008 515.638 498.544 517.462 503.12C519.286 507.696 519.974 513.088 519.526 519.296H508.054V515.072C508.022 509.44 507.03 505.328 505.078 502.736C503.126 500.144 500.054 498.848 495.862 498.848C491.126 498.848 487.606 500.32 485.302 503.264C482.998 506.176 481.846 510.448 481.846 516.08C481.846 521.328 482.998 525.392 485.302 528.272C487.606 531.152 490.966 532.592 495.382 532.592C498.23 532.592 500.678 531.968 502.726 530.72C504.806 529.44 506.406 527.6 507.526 525.2L518.95 528.656C516.966 533.328 513.894 536.96 509.734 539.552C505.606 542.144 501.046 543.44 496.054 543.44ZM478.198 519.296V510.56H513.862V519.296H478.198Z" fill="url(#paint1_linear_273_132)"/>
<path d="M17.6181 624.87C13.8181 624.87 10.6881 624.05 8.22813 622.41C5.78813 620.77 4.28813 618.49 3.72813 615.57L8.22813 614.82C8.70813 616.66 9.79813 618.13 11.4981 619.23C13.2181 620.31 15.3381 620.85 17.8581 620.85C20.3181 620.85 22.2581 620.34 23.6781 619.32C25.0981 618.28 25.8081 616.87 25.8081 615.09C25.8081 614.09 25.5781 613.28 25.1181 612.66C24.6781 612.02 23.7681 611.43 22.3881 610.89C21.0081 610.35 18.9481 609.71 16.2081 608.97C13.2681 608.17 10.9681 607.37 9.30813 606.57C7.64813 605.77 6.46813 604.85 5.76813 603.81C5.06813 602.75 4.71813 601.46 4.71813 599.94C4.71813 598.1 5.23813 596.49 6.27813 595.11C7.31813 593.71 8.75813 592.63 10.5981 591.87C12.4381 591.09 14.5781 590.7 17.0181 590.7C19.4581 590.7 21.6381 591.1 23.5581 591.9C25.4981 592.68 27.0581 593.78 28.2381 595.2C29.4181 596.62 30.1181 598.27 30.3381 600.15L25.8381 600.96C25.5381 599.06 24.5881 597.56 22.9881 596.46C21.4081 595.34 19.3981 594.76 16.9581 594.72C14.6581 594.66 12.7881 595.1 11.3481 596.04C9.90813 596.96 9.18813 598.19 9.18813 599.73C9.18813 600.59 9.44813 601.33 9.96813 601.95C10.4881 602.55 11.4281 603.12 12.7881 603.66C14.1681 604.2 16.1281 604.79 18.6681 605.43C21.6481 606.19 23.9881 606.99 25.6881 607.83C27.3881 608.67 28.5981 609.66 29.3181 610.8C30.0381 611.94 30.3981 613.35 30.3981 615.03C30.3981 618.09 29.2581 620.5 26.9781 622.26C24.7181 624 21.5981 624.87 17.6181 624.87ZM83.5816 624.9C80.3616 624.9 77.6116 624.17 75.3316 622.71C73.0516 621.25 71.3016 619.23 70.0816 616.65C68.8616 614.07 68.2516 611.11 68.2516 607.77C68.2516 604.37 68.8716 601.39 70.1116 598.83C71.3516 596.27 73.1116 594.28 75.3916 592.86C77.6916 591.42 80.4216 590.7 83.5816 590.7C86.8216 590.7 89.5816 591.43 91.8616 592.89C94.1616 594.33 95.9116 596.34 97.1116 598.92C98.3316 601.48 98.9416 604.43 98.9416 607.77C98.9416 611.17 98.3316 614.16 97.1116 616.74C95.8916 619.3 94.1316 621.3 91.8316 622.74C89.5316 624.18 86.7816 624.9 83.5816 624.9ZM83.5816 620.67C87.1816 620.67 89.8616 619.48 91.6216 617.1C93.3816 614.7 94.2616 611.59 94.2616 607.77C94.2616 603.85 93.3716 600.73 91.5916 598.41C89.8316 596.09 87.1616 594.93 83.5816 594.93C81.1616 594.93 79.1616 595.48 77.5816 596.58C76.0216 597.66 74.8516 599.17 74.0716 601.11C73.3116 603.03 72.9316 605.25 72.9316 607.77C72.9316 611.67 73.8316 614.8 75.6316 617.16C77.4316 619.5 80.0816 620.67 83.5816 620.67ZM139.159 624V579.9H143.569V624H139.159ZM197.953 624.81C196.013 624.81 194.313 624.51 192.853 623.91C191.413 623.31 190.183 622.5 189.163 621.48C188.163 620.46 187.353 619.3 186.733 618C186.113 616.68 185.663 615.29 185.383 613.83C185.103 612.35 184.963 610.88 184.963 609.42V591.6H189.403V608.13C189.403 609.91 189.573 611.56 189.913 613.08C190.253 614.6 190.793 615.93 191.533 617.07C192.293 618.19 193.263 619.06 194.443 619.68C195.643 620.3 197.093 620.61 198.793 620.61C200.353 620.61 201.723 620.34 202.903 619.8C204.103 619.26 205.103 618.49 205.903 617.49C206.723 616.47 207.343 615.24 207.763 613.8C208.183 612.34 208.393 610.7 208.393 608.88L211.513 609.57C211.513 612.89 210.933 615.68 209.773 617.94C208.613 620.2 207.013 621.91 204.973 623.07C202.933 624.23 200.593 624.81 197.953 624.81ZM208.843 624V616.02H208.393V591.6H212.803V624H208.843ZM271.828 624C270.008 624.38 268.208 624.53 266.428 624.45C264.668 624.37 263.088 623.99 261.688 623.31C260.308 622.63 259.258 621.57 258.538 620.13C257.958 618.93 257.638 617.72 257.578 616.5C257.538 615.26 257.518 613.85 257.518 612.27V582.6H261.898V612.09C261.898 613.45 261.908 614.59 261.928 615.51C261.968 616.41 262.178 617.21 262.558 617.91C263.278 619.25 264.418 620.05 265.978 620.31C267.558 620.57 269.508 620.51 271.828 620.13V624ZM250.588 595.38V591.6H271.828V595.38H250.588ZM311.812 585.45V580.5H316.222V585.45H311.812ZM311.812 624V591.6H316.222V624H311.812ZM371.746 624.9C368.526 624.9 365.776 624.17 363.496 622.71C361.216 621.25 359.466 619.23 358.246 616.65C357.026 614.07 356.416 611.11 356.416 607.77C356.416 604.37 357.036 601.39 358.276 598.83C359.516 596.27 361.276 594.28 363.556 592.86C365.856 591.42 368.586 590.7 371.746 590.7C374.986 590.7 377.746 591.43 380.026 592.89C382.326 594.33 384.076 596.34 385.276 598.92C386.496 601.48 387.106 604.43 387.106 607.77C387.106 611.17 386.496 614.16 385.276 616.74C384.056 619.3 382.296 621.3 379.996 622.74C377.696 624.18 374.946 624.9 371.746 624.9ZM371.746 620.67C375.346 620.67 378.026 619.48 379.786 617.1C381.546 614.7 382.426 611.59 382.426 607.77C382.426 603.85 381.536 600.73 379.756 598.41C377.996 596.09 375.326 594.93 371.746 594.93C369.326 594.93 367.326 595.48 365.746 596.58C364.186 597.66 363.016 599.17 362.236 601.11C361.476 603.03 361.096 605.25 361.096 607.77C361.096 611.67 361.996 614.8 363.796 617.16C365.596 619.5 368.246 620.67 371.746 620.67ZM450.123 624V607.47C450.123 605.67 449.953 604.02 449.613 602.52C449.273 601 448.723 599.68 447.963 598.56C447.223 597.42 446.253 596.54 445.053 595.92C443.873 595.3 442.433 594.99 440.733 594.99C439.173 594.99 437.793 595.26 436.593 595.8C435.413 596.34 434.413 597.12 433.593 598.14C432.793 599.14 432.183 600.36 431.763 601.8C431.343 603.24 431.133 604.88 431.133 606.72L428.013 606.03C428.013 602.71 428.593 599.92 429.753 597.66C430.913 595.4 432.513 593.69 434.553 592.53C436.593 591.37 438.933 590.79 441.573 590.79C443.513 590.79 445.203 591.09 446.643 591.69C448.103 592.29 449.333 593.1 450.333 594.12C451.353 595.14 452.173 596.31 452.793 597.63C453.413 598.93 453.863 600.32 454.143 601.8C454.423 603.26 454.563 604.72 454.563 606.18V624H450.123ZM426.693 624V591.6H430.683V599.58H431.133V624H426.693ZM507.438 624.87C503.638 624.87 500.508 624.05 498.048 622.41C495.608 620.77 494.108 618.49 493.548 615.57L498.048 614.82C498.528 616.66 499.618 618.13 501.318 619.23C503.038 620.31 505.158 620.85 507.678 620.85C510.138 620.85 512.078 620.34 513.498 619.32C514.918 618.28 515.628 616.87 515.628 615.09C515.628 614.09 515.398 613.28 514.938 612.66C514.498 612.02 513.588 611.43 512.208 610.89C510.828 610.35 508.768 609.71 506.028 608.97C503.088 608.17 500.788 607.37 499.128 606.57C497.468 605.77 496.288 604.85 495.588 603.81C494.888 602.75 494.538 601.46 494.538 599.94C494.538 598.1 495.058 596.49 496.098 595.11C497.138 593.71 498.578 592.63 500.418 591.87C502.258 591.09 504.398 590.7 506.838 590.7C509.278 590.7 511.458 591.1 513.378 591.9C515.318 592.68 516.878 593.78 518.058 595.2C519.238 596.62 519.938 598.27 520.158 600.15L515.658 600.96C515.358 599.06 514.408 597.56 512.808 596.46C511.228 595.34 509.218 594.76 506.778 594.72C504.478 594.66 502.608 595.1 501.168 596.04C499.728 596.96 499.008 598.19 499.008 599.73C499.008 600.59 499.268 601.33 499.788 601.95C500.308 602.55 501.248 603.12 502.608 603.66C503.988 604.2 505.948 604.79 508.488 605.43C511.468 606.19 513.808 606.99 515.508 607.83C517.208 608.67 518.418 609.66 519.138 610.8C519.858 611.94 520.218 613.35 520.218 615.03C520.218 618.09 519.078 620.5 516.798 622.26C514.538 624 511.418 624.87 507.438 624.87Z" fill="#14172A"/>
<defs>
<linearGradient id="paint0_linear_273_132" x1="62" y1="399.995" x2="462" y2="399.995" gradientUnits="userSpaceOnUse">
<stop stop-color="#01449B"/>
<stop offset="1" stop-color="#75D8FF"/>
</linearGradient>
<linearGradient id="paint1_linear_273_132" x1="0" y1="643" x2="524" y2="643" gradientUnits="userSpaceOnUse">
<stop stop-color="#01449B"/>
<stop offset="1" stop-color="#75D8FF"/>
</linearGradient>
</defs>
</svg>
