<svg width="288" height="99" viewBox="0 0 288 99" fill="none" xmlns="http://www.w3.org/2000/svg">
<circle cx="49.05" cy="49.0502" r="29.4301" fill="#F6F7FA"/>
<path d="M48.6414 98.0991C21.7403 97.9115 0.0981445 76.0872 0.136292 49.1858C2.08256 62.9699 24.6098 73.023 48.6414 62.97C69.241 54.3526 79.3455 44.9628 98.1002 49.1858C98.1386 76.2751 75.7305 98.288 48.6414 98.0991Z" fill="#B0E6FE"/>
<path d="M88.2902 49.0495C88.2902 70.7207 70.7219 88.289 49.0501 88.289C27.3783 88.289 9.81002 70.7207 9.81002 49.0495C9.81002 27.3782 27.3783 9.81002 49.0501 9.81002C70.7219 9.81002 88.2902 27.3782 88.2902 49.0495Z" stroke="url(#paint0_linear_423_733)" stroke-width="19.62"/>
<g style="mix-blend-mode:darken">
<path d="M48.6414 98.0991C21.7403 97.9115 0.0981445 76.0872 0.136292 49.1858C2.08256 62.9699 24.6098 73.023 48.6414 62.97C69.241 54.3526 79.3455 44.9628 98.1002 49.1858C98.1386 76.2751 75.7305 98.288 48.6414 98.0991Z" fill="#B0E6FE"/>
<path d="M49.3226 98.0991C76.2243 98.0991 98.1384 76.0871 98.1002 49.1858C96.154 62.9699 73.3542 73.023 49.3226 62.9699C28.723 54.3526 18.7547 44.9628 0 49.1858C0 75.5371 21.4594 98.0991 49.3226 98.0991Z" fill="#51C6FB"/>
<path d="M49.2969 98.1475C71.1447 98.1475 85.3472 84.121 90.3748 75.5373C66.6231 99.289 19.1295 34.5804 2.20947 63.6813C6.62177 78.3576 22.2072 98.1475 49.2969 98.1475Z" fill="#3D7EF9"/>
<path d="M49.3226 98.099C58.7717 98.099 66.9534 95.6477 74.4335 91.1106C59.228 93.8084 33.7218 47.5786 6.98962 74.3108C19.62 94.6667 38.8722 98.099 49.3226 98.099Z" fill="#336CFF"/>
</g>
<path d="M127.548 50.412C125.895 50.412 124.508 50.0196 123.389 49.2348C122.269 48.45 121.427 47.3827 120.862 46.0329C120.297 44.6725 120.014 43.15 120.014 41.4653C120.014 39.7597 120.297 38.2319 120.862 36.8821C121.427 35.5322 122.253 34.4701 123.342 33.6958C124.44 32.911 125.795 32.5186 127.407 32.5186C129.008 32.5186 130.394 32.911 131.566 33.6958C132.749 34.4701 133.664 35.5322 134.313 36.8821C134.962 38.2215 135.286 39.7492 135.286 41.4653C135.286 43.1605 134.967 44.683 134.329 46.0329C133.691 47.3827 132.791 48.45 131.629 49.2348C130.468 50.0196 129.107 50.412 127.548 50.412ZM119.371 57.4753V32.9895H122.714V44.887H123.185V57.4753H119.371ZM126.967 47.0217C127.951 47.0217 128.762 46.7758 129.4 46.284C130.039 45.7922 130.509 45.1277 130.813 44.2906C131.127 43.443 131.284 42.5012 131.284 41.4653C131.284 40.4398 131.127 39.5085 130.813 38.6714C130.499 37.8238 130.012 37.1541 129.353 36.6623C128.694 36.16 127.857 35.9089 126.842 35.9089C125.879 35.9089 125.094 36.1444 124.487 36.6152C123.881 37.0757 123.431 37.7244 123.138 38.5615C122.855 39.3882 122.714 40.3561 122.714 41.4653C122.714 42.564 122.855 43.532 123.138 44.3691C123.431 45.2062 123.886 45.8602 124.503 46.3311C125.131 46.7915 125.952 47.0217 126.967 47.0217ZM139.06 49.9412V26.868H142.843V49.9412H139.06ZM152.285 50.412C151.06 50.412 150.024 50.1818 149.177 49.7214C148.329 49.2505 147.686 48.6279 147.246 47.8536C146.817 47.0793 146.603 46.2264 146.603 45.2951C146.603 44.4789 146.739 43.7465 147.011 43.0977C147.283 42.4385 147.701 41.8734 148.266 41.4025C148.831 40.9212 149.564 40.5288 150.464 40.2253C151.144 40.0056 151.939 39.8068 152.85 39.6289C153.77 39.451 154.765 39.2888 155.832 39.1423C156.91 38.9853 158.035 38.8179 159.207 38.64L157.857 39.4091C157.867 38.2372 157.606 37.3739 157.072 36.8193C156.538 36.2647 155.638 35.9874 154.372 35.9874C153.608 35.9874 152.871 36.1653 152.159 36.5211C151.447 36.8768 150.95 37.489 150.668 38.3575L147.215 37.2745C147.633 35.8409 148.429 34.6899 149.601 33.8213C150.783 32.9528 152.374 32.5186 154.372 32.5186C155.879 32.5186 157.203 32.7645 158.343 33.2563C159.494 33.7481 160.347 34.5538 160.902 35.6735C161.205 36.2699 161.388 36.8821 161.451 37.5099C161.514 38.1273 161.545 38.8022 161.545 39.5347V49.9412H158.233V46.2683L158.783 46.8647C158.019 48.089 157.124 48.9889 156.099 49.5645C155.084 50.1295 153.812 50.412 152.285 50.412ZM153.038 47.3984C153.896 47.3984 154.629 47.2467 155.235 46.9432C155.842 46.6398 156.324 46.2683 156.679 45.8288C157.046 45.3893 157.292 44.976 157.417 44.5888C157.616 44.1075 157.726 43.5581 157.747 42.9407C157.778 42.3129 157.794 41.8054 157.794 41.4182L158.955 41.7635C157.815 41.9414 156.836 42.0984 156.02 42.2344C155.204 42.3704 154.503 42.5012 153.917 42.6268C153.331 42.7419 152.813 42.8727 152.363 43.0192C151.924 43.1762 151.552 43.3593 151.249 43.5686C150.945 43.7779 150.71 44.0185 150.542 44.2906C150.385 44.5627 150.307 44.8818 150.307 45.248C150.307 45.6666 150.412 46.0381 150.621 46.3625C150.83 46.6764 151.134 46.9275 151.531 47.1159C151.939 47.3042 152.442 47.3984 153.038 47.3984ZM177.357 49.9412V41.7792C177.357 41.2456 177.32 40.6543 177.247 40.0056C177.173 39.3568 177.001 38.7342 176.729 38.1377C176.467 37.5308 176.069 37.0338 175.536 36.6466C175.013 36.2595 174.301 36.0659 173.401 36.0659C172.92 36.0659 172.444 36.1444 171.973 36.3013C171.502 36.4583 171.073 36.7303 170.686 37.1175C170.309 37.4942 170.006 38.0174 169.775 38.6871C169.545 39.3463 169.43 40.1939 169.43 41.2299L167.186 40.2724C167.186 38.8284 167.463 37.5204 168.017 36.3484C168.582 35.1764 169.409 34.2451 170.497 33.5545C171.586 32.8534 172.925 32.5029 174.516 32.5029C175.771 32.5029 176.807 32.7122 177.623 33.1307C178.44 33.5493 179.088 34.0829 179.57 34.7317C180.051 35.3805 180.407 36.0711 180.637 36.8036C180.867 37.5361 181.014 38.2319 181.077 38.8912C181.15 39.5399 181.186 40.0684 181.186 40.4765V49.9412H177.357ZM165.6 49.9412V32.9895H168.975V38.2476H169.43V49.9412H165.6ZM192.713 50.412C190.997 50.412 189.49 50.0406 188.193 49.2976C186.895 48.5547 185.88 47.524 185.148 46.2055C184.426 44.887 184.065 43.3698 184.065 41.6537C184.065 39.8015 184.42 38.1953 185.132 36.835C185.844 35.4642 186.832 34.4021 188.099 33.6487C189.365 32.8953 190.83 32.5186 192.493 32.5186C194.251 32.5186 195.742 32.9319 196.967 33.7586C198.202 34.5748 199.117 35.731 199.714 37.2274C200.31 38.7237 200.535 40.4869 200.389 42.5169H196.637V41.1357C196.627 39.294 196.302 37.9494 195.664 37.1018C195.026 36.2542 194.021 35.8304 192.65 35.8304C191.102 35.8304 189.951 36.3118 189.197 37.2745C188.444 38.2267 188.067 39.6236 188.067 41.4653C188.067 43.1814 188.444 44.5103 189.197 45.4521C189.951 46.3939 191.049 46.8647 192.493 46.8647C193.425 46.8647 194.225 46.6607 194.895 46.2526C195.575 45.834 196.098 45.2324 196.464 44.4476L200.2 45.5777C199.551 47.1054 198.547 48.2931 197.187 49.1407C195.837 49.9883 194.346 50.412 192.713 50.412ZM186.874 42.5169V39.6603H198.536V42.5169H186.874ZM213.826 49.9412C212.707 50.1504 211.608 50.2394 210.53 50.208C209.463 50.1871 208.505 49.9935 207.658 49.6272C206.81 49.2505 206.167 48.6593 205.727 47.8536C205.34 47.1211 205.136 46.3729 205.115 45.6091C205.094 44.8452 205.084 43.9819 205.084 43.0192V28.2806H208.851V42.7995C208.851 43.4796 208.856 44.0761 208.866 44.5888C208.887 45.1016 208.997 45.5201 209.196 45.8445C209.573 46.4723 210.174 46.8229 211.001 46.8961C211.828 46.9694 212.769 46.9275 213.826 46.7706V49.9412ZM202.007 35.956V32.9895H213.826V35.956H202.007ZM231.902 50.412C230.249 50.412 228.862 50.0196 227.743 49.2348C226.623 48.45 225.781 47.3827 225.216 46.0329C224.651 44.6725 224.368 43.15 224.368 41.4653C224.368 39.7597 224.651 38.2319 225.216 36.8821C225.781 35.5322 226.607 34.4701 227.696 33.6958C228.794 32.911 230.149 32.5186 231.761 32.5186C233.362 32.5186 234.748 32.911 235.92 33.6958C237.103 34.4701 238.018 35.5322 238.667 36.8821C239.316 38.2215 239.64 39.7492 239.64 41.4653C239.64 43.1605 239.321 44.683 238.683 46.0329C238.045 47.3827 237.145 48.45 235.983 49.2348C234.822 50.0196 233.461 50.412 231.902 50.412ZM223.725 49.9412V27.3389H227.539V38.0436H227.068V49.9412H223.725ZM231.321 47.0217C232.305 47.0217 233.116 46.7758 233.754 46.284C234.393 45.7922 234.864 45.1277 235.167 44.2906C235.481 43.443 235.638 42.5012 235.638 41.4653C235.638 40.4398 235.481 39.5085 235.167 38.6714C234.853 37.8238 234.366 37.1541 233.707 36.6623C233.048 36.16 232.211 35.9089 231.196 35.9089C230.233 35.9089 229.448 36.1444 228.841 36.6152C228.235 37.0757 227.785 37.7244 227.492 38.5615C227.209 39.3882 227.068 40.3561 227.068 41.4653C227.068 42.564 227.209 43.532 227.492 44.3691C227.785 45.2062 228.24 45.8602 228.857 46.3311C229.485 46.7915 230.306 47.0217 231.321 47.0217ZM243.414 49.9412V26.868H247.197V49.9412H243.414ZM258.255 50.4277C257 50.4277 255.964 50.2185 255.148 49.7999C254.331 49.3813 253.683 48.8477 253.201 48.1989C252.72 47.5501 252.364 46.8595 252.134 46.127C251.904 45.3945 251.752 44.7039 251.679 44.0552C251.616 43.3959 251.585 42.8623 251.585 42.4542V32.9895H255.414V41.1514C255.414 41.6746 255.451 42.2658 255.524 42.925C255.597 43.5738 255.765 44.2016 256.026 44.8086C256.299 45.405 256.696 45.8968 257.219 46.284C257.753 46.6712 258.47 46.8647 259.37 46.8647C259.851 46.8647 260.327 46.7863 260.798 46.6293C261.269 46.4723 261.693 46.2055 262.069 45.8288C262.457 45.4416 262.765 44.9132 262.996 44.2435C263.226 43.5738 263.341 42.7262 263.341 41.7007L265.585 42.6582C265.585 44.1022 265.303 45.4102 264.738 46.5822C264.183 47.7542 263.362 48.6907 262.274 49.3918C261.185 50.0824 259.846 50.4277 258.255 50.4277ZM263.796 49.9412V44.683H263.341V32.9895H267.139V49.9412H263.796ZM279.256 50.412C277.54 50.412 276.033 50.0406 274.735 49.2976C273.438 48.5547 272.423 47.524 271.69 46.2055C270.968 44.887 270.607 43.3698 270.607 41.6537C270.607 39.8015 270.963 38.1953 271.675 36.835C272.386 35.4642 273.375 34.4021 274.641 33.6487C275.907 32.8953 277.372 32.5186 279.036 32.5186C280.794 32.5186 282.285 32.9319 283.51 33.7586C284.744 34.5748 285.66 35.731 286.256 37.2274C286.853 38.7237 287.078 40.4869 286.931 42.5169H283.18V41.1357C283.169 39.294 282.845 37.9494 282.207 37.1018C281.568 36.2542 280.564 35.8304 279.193 35.8304C277.644 35.8304 276.493 36.3118 275.74 37.2745C274.987 38.2267 274.61 39.6236 274.61 41.4653C274.61 43.1814 274.987 44.5103 275.74 45.4521C276.493 46.3939 277.592 46.8647 279.036 46.8647C279.967 46.8647 280.768 46.6607 281.438 46.2526C282.118 45.834 282.641 45.2324 283.007 44.4476L286.743 45.5777C286.094 47.1054 285.09 48.2931 283.729 49.1407C282.379 49.9883 280.888 50.412 279.256 50.412ZM273.417 42.5169V39.6603H285.079V42.5169H273.417ZM122.807 77.2257C121.565 77.2257 120.541 76.9575 119.737 76.4212C118.939 75.885 118.448 75.1394 118.265 74.1845L119.737 73.9393C119.894 74.541 120.25 75.0217 120.806 75.3814C121.368 75.7345 122.062 75.9111 122.886 75.9111C123.69 75.9111 124.324 75.7443 124.789 75.4108C125.253 75.0707 125.485 74.6096 125.485 74.0276C125.485 73.7006 125.41 73.4357 125.26 73.233C125.116 73.0237 124.818 72.8308 124.367 72.6542C123.916 72.4776 123.242 72.2683 122.346 72.0263C121.385 71.7647 120.633 71.5031 120.09 71.2415C119.547 70.9799 119.161 70.6791 118.932 70.339C118.703 69.9924 118.589 69.5706 118.589 69.0735C118.589 68.4718 118.759 67.9454 119.099 67.4941C119.439 67.0363 119.91 66.6832 120.512 66.4346C121.113 66.1796 121.813 66.052 122.611 66.052C123.409 66.052 124.122 66.1828 124.75 66.4444C125.384 66.6995 125.894 67.0592 126.28 67.5235C126.666 67.9879 126.895 68.5274 126.967 69.1422L125.495 69.4071C125.397 68.7858 125.086 68.2953 124.563 67.9356C124.047 67.5693 123.389 67.3797 122.591 67.3666C121.839 67.347 121.228 67.4908 120.757 67.7982C120.286 68.0991 120.051 68.5013 120.051 69.0049C120.051 69.2861 120.136 69.5281 120.306 69.7308C120.476 69.927 120.783 70.1134 121.228 70.29C121.679 70.4666 122.32 70.6595 123.151 70.8688C124.125 71.1173 124.89 71.3789 125.446 71.6536C126.002 71.9282 126.398 72.252 126.633 72.6248C126.869 72.9975 126.986 73.4586 126.986 74.008C126.986 75.0086 126.613 75.7967 125.868 76.3722C125.129 76.9412 124.109 77.2257 122.807 77.2257ZM144.377 77.2355C143.324 77.2355 142.425 76.9968 141.68 76.5193C140.934 76.0419 140.362 75.3814 139.963 74.5377C139.564 73.694 139.364 72.7261 139.364 71.6339C139.364 70.5221 139.567 69.5477 139.973 68.7106C140.378 67.8734 140.954 67.2227 141.699 66.7584C142.451 66.2875 143.344 66.052 144.377 66.052C145.437 66.052 146.339 66.2908 147.085 66.7682C147.837 67.2391 148.409 67.8963 148.802 68.74C149.201 69.5771 149.4 70.5418 149.4 71.6339C149.4 72.7457 149.201 73.7235 148.802 74.5671C148.403 75.4043 147.827 76.0583 147.075 76.5291C146.323 77 145.424 77.2355 144.377 77.2355ZM144.377 75.8523C145.554 75.8523 146.431 75.4631 147.006 74.6849C147.582 73.9001 147.87 72.8831 147.87 71.6339C147.87 70.3521 147.579 69.3319 146.997 68.5732C146.421 67.8146 145.548 67.4353 144.377 67.4353C143.586 67.4353 142.932 67.6151 142.415 67.9748C141.905 68.328 141.523 68.8217 141.268 69.4561C141.019 70.084 140.895 70.8099 140.895 71.6339C140.895 72.9092 141.189 73.9328 141.778 74.7045C142.366 75.4697 143.233 75.8523 144.377 75.8523ZM162.551 76.9412V62.5204H163.993V76.9412H162.551ZM181.777 77.206C181.143 77.206 180.587 77.1079 180.109 76.9117C179.638 76.7155 179.236 76.4507 178.903 76.1171C178.576 75.7836 178.311 75.4043 178.108 74.9792C177.905 74.5475 177.758 74.093 177.667 73.6156C177.575 73.1316 177.529 72.6509 177.529 72.1735V66.3463H178.981V71.7517C178.981 72.3337 179.037 72.8733 179.148 73.3703C179.259 73.8674 179.436 74.3023 179.678 74.675C179.926 75.0413 180.243 75.3258 180.629 75.5285C181.022 75.7313 181.496 75.8326 182.052 75.8326C182.562 75.8326 183.01 75.7443 183.396 75.5678C183.788 75.3912 184.115 75.1394 184.377 74.8124C184.645 74.4788 184.847 74.0766 184.985 73.6058C185.122 73.1283 185.191 72.5921 185.191 71.9969L186.211 72.2225C186.211 73.3082 186.021 74.2205 185.642 74.9595C185.263 75.6986 184.74 76.2577 184.072 76.6371C183.405 77.0164 182.64 77.206 181.777 77.206ZM185.338 76.9412V74.3317H185.191V66.3463H186.633V76.9412H185.338ZM205.934 76.9412C205.339 77.0654 204.75 77.1145 204.168 77.0883C203.593 77.0622 203.076 76.9379 202.618 76.7155C202.167 76.4932 201.824 76.1466 201.588 75.6757C201.399 75.2833 201.294 74.8876 201.274 74.4887C201.261 74.0832 201.255 73.6221 201.255 73.1054V63.4033H202.687V73.0466C202.687 73.4913 202.69 73.8641 202.697 74.1649C202.71 74.4592 202.779 74.7208 202.903 74.9497C203.138 75.3879 203.511 75.6495 204.021 75.7345C204.538 75.8196 205.175 75.7999 205.934 75.6757V76.9412ZM198.989 67.5824V66.3463H205.934V67.5824H198.989ZM219.009 64.3353V62.7166H220.451V64.3353H219.009ZM219.009 76.9412V66.3463H220.451V76.9412H219.009ZM238.607 77.2355C237.554 77.2355 236.655 76.9968 235.909 76.5193C235.164 76.0419 234.592 75.3814 234.193 74.5377C233.794 73.694 233.594 72.7261 233.594 71.6339C233.594 70.5221 233.797 69.5477 234.202 68.7106C234.608 67.8734 235.183 67.2227 235.929 66.7584C236.681 66.2875 237.574 66.052 238.607 66.052C239.667 66.052 240.569 66.2908 241.315 66.7682C242.067 67.2391 242.639 67.8963 243.031 68.74C243.43 69.5771 243.63 70.5418 243.63 71.6339C243.63 72.7457 243.43 73.7235 243.031 74.5671C242.632 75.4043 242.057 76.0583 241.305 76.5291C240.553 77 239.654 77.2355 238.607 77.2355ZM238.607 75.8523C239.784 75.8523 240.661 75.4631 241.236 74.6849C241.812 73.9001 242.099 72.8831 242.099 71.6339C242.099 70.3521 241.808 69.3319 241.226 68.5732C240.651 67.8146 239.778 67.4353 238.607 67.4353C237.816 67.4353 237.162 67.6151 236.645 67.9748C236.135 68.328 235.752 68.8217 235.497 69.4561C235.249 70.084 235.125 70.8099 235.125 71.6339C235.125 72.9092 235.419 73.9328 236.007 74.7045C236.596 75.4697 237.463 75.8523 238.607 75.8523ZM264.237 76.9412V71.5358C264.237 70.9472 264.181 70.4077 264.07 69.9172C263.959 69.4201 263.779 68.9885 263.53 68.6223C263.288 68.2495 262.971 67.9617 262.579 67.759C262.193 67.5562 261.722 67.4549 261.166 67.4549C260.656 67.4549 260.205 67.5432 259.812 67.7197C259.427 67.8963 259.1 68.1514 258.831 68.4849C258.57 68.8119 258.37 69.2109 258.233 69.6817C258.096 70.1526 258.027 70.6889 258.027 71.2906L257.007 71.065C257.007 69.9793 257.196 69.067 257.576 68.328C257.955 67.5889 258.478 67.0298 259.145 66.6505C259.812 66.2711 260.578 66.0815 261.441 66.0815C262.075 66.0815 262.628 66.1796 263.099 66.3758C263.576 66.572 263.978 66.8368 264.305 67.1704C264.639 67.5039 264.907 67.8865 265.11 68.3182C265.313 68.7433 265.46 69.1978 265.551 69.6817C265.643 70.1592 265.689 70.6366 265.689 71.114V76.9412H264.237ZM256.575 76.9412V66.3463H257.88V68.9558H258.027V76.9412H256.575ZM282.979 77.2257C281.736 77.2257 280.713 76.9575 279.908 76.4212C279.11 75.885 278.62 75.1394 278.437 74.1845L279.908 73.9393C280.065 74.541 280.422 75.0217 280.977 75.3814C281.54 75.7345 282.233 75.9111 283.057 75.9111C283.862 75.9111 284.496 75.7443 284.96 75.4108C285.425 75.0707 285.657 74.6096 285.657 74.0276C285.657 73.7006 285.582 73.4357 285.431 73.233C285.287 73.0237 284.99 72.8308 284.539 72.6542C284.087 72.4776 283.414 72.2683 282.518 72.0263C281.556 71.7647 280.804 71.5031 280.261 71.2415C279.719 70.9799 279.333 70.6791 279.104 70.339C278.875 69.9924 278.76 69.5706 278.76 69.0735C278.76 68.4718 278.93 67.9454 279.271 67.4941C279.611 67.0363 280.082 66.6832 280.683 66.4346C281.285 66.1796 281.985 66.052 282.783 66.052C283.58 66.052 284.293 66.1828 284.921 66.4444C285.555 66.6995 286.066 67.0592 286.451 67.5235C286.837 67.9879 287.066 68.5274 287.138 69.1422L285.667 69.4071C285.569 68.7858 285.258 68.2953 284.735 67.9356C284.218 67.5693 283.561 67.3797 282.763 67.3666C282.011 67.347 281.399 67.4908 280.928 67.7982C280.458 68.0991 280.222 68.5013 280.222 69.0049C280.222 69.2861 280.307 69.5281 280.477 69.7308C280.647 69.927 280.955 70.1134 281.399 70.29C281.851 70.4666 282.491 70.6595 283.322 70.8688C284.297 71.1173 285.062 71.3789 285.618 71.6536C286.174 71.9282 286.569 72.252 286.805 72.6248C287.04 72.9975 287.158 73.4586 287.158 74.008C287.158 75.0086 286.785 75.7967 286.039 76.3722C285.3 76.9412 284.28 77.2257 282.979 77.2257Z" fill="#FDFDFD"/>
<defs>
<linearGradient id="paint0_linear_423_733" x1="0" y1="98.099" x2="98.1002" y2="98.099" gradientUnits="userSpaceOnUse">
<stop stop-color="#01449B"/>
<stop offset="1" stop-color="#75D8FF"/>
</linearGradient>
</defs>
</svg>
