<svg width="29" height="28" viewBox="0 0 29 28" fill="none" xmlns="http://www.w3.org/2000/svg">
<g clip-path="url(#clip0_112_752)">
<path d="M14.2407 0C6.50697 0 0.240723 6.26625 0.240723 14C0.240723 21.7337 6.50697 28 14.2407 28C21.9745 28 28.2407 21.7337 28.2407 14C28.2407 6.26625 21.9745 0 14.2407 0ZM8.92822 20.1181C8.84231 20.2647 8.71934 20.386 8.57166 20.4699C8.42399 20.5538 8.25683 20.5974 8.08697 20.5963C7.91386 20.5978 7.74375 20.551 7.59572 20.4613C7.4855 20.3974 7.38899 20.3124 7.3117 20.2111C7.23442 20.1098 7.1779 19.9943 7.14538 19.8711C7.11286 19.748 7.10499 19.6196 7.1222 19.4934C7.13942 19.3672 7.1814 19.2456 7.24572 19.1356L8.20135 17.5469C8.24964 17.4649 8.31854 17.3969 8.40121 17.3498C8.48387 17.3026 8.57743 17.2779 8.6726 17.2781H8.81385C9.50697 17.2781 9.99197 17.695 10.1332 18.0987L8.92822 20.1181ZM17.0188 16.9931L10.7607 17H6.60135C6.47048 17.0006 6.34087 16.9745 6.22037 16.9235C6.09987 16.8724 5.99099 16.7974 5.90035 16.7031C5.8097 16.6087 5.73917 16.4968 5.69304 16.3744C5.64691 16.2519 5.62613 16.1214 5.63197 15.9906C5.65197 15.4656 6.1101 15.0681 6.63197 15.0681H9.64697L13.2213 8.98375L12.0638 7.01188C11.8032 6.5625 11.9188 5.97 12.3657 5.6875C12.4759 5.61625 12.5993 5.56801 12.7286 5.54569C12.8579 5.52337 12.9904 5.52742 13.1181 5.5576C13.2457 5.58779 13.366 5.64348 13.4716 5.72133C13.5772 5.79918 13.666 5.89759 13.7326 6.01062L14.3513 7.0675H14.3582L14.9776 6.01062C15.0443 5.89817 15.1329 5.8003 15.2382 5.72284C15.3435 5.64538 15.4634 5.58991 15.5906 5.55976C15.7178 5.52961 15.8498 5.52538 15.9786 5.54732C16.1075 5.56927 16.2307 5.61694 16.3407 5.6875C16.7851 5.97 16.8995 6.5625 16.637 7.01375L15.4795 8.98563L14.3545 10.9038L11.9113 15.07V15.0769H15.512C15.9632 15.0769 16.5288 15.3194 16.7576 15.7094L16.7776 15.75C16.9795 16.0931 17.0938 16.3288 17.0938 16.6719C17.0905 16.7833 17.0657 16.893 17.0207 16.995L17.0188 16.9931ZM21.8782 17H20.1838V17.0069L21.4226 19.1138C21.5558 19.3356 21.5966 19.601 21.5362 19.8526C21.4757 20.1043 21.3189 20.3222 21.0995 20.4594C20.9473 20.5521 20.7726 20.6012 20.5945 20.6012C20.4251 20.6012 20.2586 20.5573 20.1112 20.4738C19.9638 20.3904 19.8405 20.2702 19.7532 20.125L17.9226 17.0088L16.7851 15.0713L15.3176 12.5625C15.105 12.2043 14.9895 11.7969 14.9824 11.3804C14.9753 10.9639 15.0768 10.5528 15.277 10.1875C15.567 9.67562 15.7888 9.54125 15.7888 9.54125L19.0532 15.0625H21.8601C22.3851 15.0625 22.8357 15.4663 22.8601 15.9844C22.8652 16.1161 22.8435 16.2475 22.7965 16.3707C22.7495 16.4938 22.6781 16.6062 22.5866 16.7011C22.495 16.7959 22.3853 16.8713 22.2639 16.9227C22.1425 16.974 22.0119 17.0003 21.8801 17H21.8782Z" fill="#2196F3"/>
</g>
<defs>
<clipPath id="clip0_112_752">
<rect width="28" height="28" fill="white" transform="translate(0.5)"/>
</clipPath>
</defs>
</svg>
