<svg width="60" height="32" viewBox="0 0 60 32" fill="none" xmlns="http://www.w3.org/2000/svg">
<g style="mix-blend-mode:darken">
<path d="M29.75 30.9993C13.2968 30.8846 0.0600014 17.5364 0.0833359 1.08296C1.27371 9.51364 15.0518 15.6623 29.75 9.51365C42.3491 4.2431 48.5293 -1.49987 60 1.08297C60.0235 17.6514 46.3182 31.1148 29.75 30.9993Z" fill="#B0E6FE"/>
<path d="M30.1667 30.9993C46.6203 30.9993 60.0234 17.5364 60 1.08296C58.8097 9.51364 44.8649 15.6623 30.1667 9.51365C17.5676 4.2431 11.4707 -1.49987 0 1.08297C0 17.1999 13.125 30.9993 30.1667 30.9993Z" fill="#51C6FB"/>
<path d="M30.1511 31.0289C43.5136 31.0289 52.2001 22.45 55.2751 17.2C40.7481 31.727 11.7001 -7.85 1.35144 9.94866C4.05009 18.925 13.5824 31.0289 30.1511 31.0289Z" fill="#3D7EF9"/>
<path d="M30.1667 30.9992C35.946 30.9992 40.95 29.5 45.525 26.725C36.225 28.375 20.625 0.099988 4.27502 16.4499C12 28.9 23.775 30.9992 30.1667 30.9992Z" fill="#336CFF"/>
</g>
</svg>
