<svg width="26" height="28" viewBox="0 0 26 28" fill="none" xmlns="http://www.w3.org/2000/svg">
<path d="M1.3465 0.438701C0.991094 0.865113 0.811362 1.41084 0.84383 1.965V26.0385C0.813199 26.5924 0.992715 27.1375 1.3465 27.5648L1.42876 27.647L14.9095 14.1571V13.8372L1.42876 0.356445L1.3465 0.438701Z" fill="url(#paint0_linear_112_741)"/>
<path d="M19.4062 18.6536L14.9095 14.157V13.8371L19.4062 9.34961L19.5067 9.40445L24.8351 12.4296C26.3614 13.2887 26.3614 14.7054 24.8351 15.5736L19.5067 18.5988L19.4062 18.6536Z" fill="url(#paint1_linear_112_741)"/>
<path d="M19.5068 18.5988L14.937 14.0291L1.34656 27.5647C1.65982 27.8222 2.04983 27.9683 2.4552 27.9799C2.86057 27.9914 3.25829 27.8679 3.58574 27.6287L19.4794 18.5988" fill="url(#paint2_linear_112_741)"/>
<path d="M19.5068 9.4045L3.58574 0.365518C3.2618 0.116467 2.86144 -0.0123951 2.45305 0.000940221C2.04466 0.0142755 1.65356 0.168981 1.34656 0.438634L14.9096 14.0017L19.5068 9.4045Z" fill="url(#paint3_linear_112_741)"/>
<path opacity="0.1" d="M19.4062 18.4983L3.58569 27.4733C3.27011 27.7084 2.88707 27.8355 2.49352 27.8355C2.09997 27.8355 1.71692 27.7084 1.40135 27.4733L1.31909 27.5556L1.40135 27.6378C1.71692 27.873 2.09997 28 2.49352 28C2.88707 28 3.27011 27.873 3.58569 27.6378L19.4793 18.608L19.4062 18.4983Z" fill="#14172A"/>
<path opacity="0.07" d="M1.34648 27.4185C0.992095 26.9879 0.812653 26.4398 0.843802 25.8831V26.0384C0.813171 26.5923 0.992687 27.1374 1.34648 27.5647L1.42873 27.4825L1.34648 27.4185Z" fill="#14172A"/>
<path opacity="0.07" d="M24.835 15.4091L19.4061 18.4983L19.5067 18.5988L24.835 15.5371C25.1475 15.3996 25.418 15.1817 25.6187 14.9055C25.8194 14.6293 25.9432 14.3048 25.9774 13.9651C25.9151 14.2791 25.779 14.5738 25.5803 14.8249C25.3817 15.0759 25.1262 15.2762 24.835 15.4091Z" fill="#14172A"/>
<path opacity="0.3" d="M3.58573 0.52997L24.8351 12.585C25.1235 12.7147 25.3773 12.9105 25.5758 13.1567C25.7743 13.4028 25.9119 13.6923 25.9775 14.0016C25.9452 13.6613 25.8221 13.336 25.6212 13.0595C25.4202 12.783 25.1488 12.5655 24.8351 12.4296L3.58573 0.365459C2.08685 -0.493655 0.843872 0.219227 0.843872 1.96487V2.12025C0.843872 0.383738 2.08685 -0.338284 3.58573 0.52997Z" fill="white"/>
<defs>
<linearGradient id="paint0_linear_112_741" x1="13.7214" y1="1.70909" x2="-4.54848" y2="19.979" gradientUnits="userSpaceOnUse">
<stop stop-color="#008EFF"/>
<stop offset="0.01" stop-color="#008FFF"/>
<stop offset="0.26" stop-color="#00ACFF"/>
<stop offset="0.51" stop-color="#00C0FF"/>
<stop offset="0.76" stop-color="#00CDFF"/>
<stop offset="1" stop-color="#00D1FF"/>
</linearGradient>
<linearGradient id="paint1_linear_112_741" x1="25.0179" y1="14.0016" x2="-1.32223" y2="14.0016" gradientUnits="userSpaceOnUse">
<stop stop-color="#FFD800"/>
<stop offset="1" stop-color="#FF8A00"/>
</linearGradient>
<linearGradient id="paint2_linear_112_741" x1="17.0117" y1="16.4967" x2="-7.7564" y2="41.2648" gradientUnits="userSpaceOnUse">
<stop stop-color="#FF3A44"/>
<stop offset="1" stop-color="#B11162"/>
</linearGradient>
<linearGradient id="paint3_linear_112_741" x1="-2.07162" y1="-7.57672" x2="8.99633" y2="3.48209" gradientUnits="userSpaceOnUse">
<stop stop-color="#328E71"/>
<stop offset="0.07" stop-color="#2D9571"/>
<stop offset="0.48" stop-color="#15BD74"/>
<stop offset="0.8" stop-color="#06D575"/>
<stop offset="1" stop-color="#00DE76"/>
</linearGradient>
</defs>
</svg>
