<svg width="234" height="80" viewBox="0 0 234 80" fill="none" xmlns="http://www.w3.org/2000/svg">
<path d="M16.0793 13.9007C13.069 12.5576 11.2295 11.6787 10.5609 11.2639C9.75704 10.7505 9.3551 10.0874 9.3551 9.27483C9.3551 7.10222 11.3469 6.01592 15.3306 6.01592C18.1605 6.01592 21.2245 6.66893 24.5224 7.97497V1.28367C20.0879 0.427891 16.6989 0 14.3557 0C10.1061 0 6.65889 0.903583 4.01399 2.71075C1.338 4.53488 0 7.18857 0 10.6718C0 13.3764 0.91895 15.6153 2.75685 17.3886C4.17493 18.7332 7.22177 20.3584 11.8974 22.2642C14.5018 23.3266 16.1213 24.1562 16.7557 24.7529C17.0535 25.0138 17.2907 25.3356 17.451 25.6962C17.6113 26.0568 17.6907 26.4475 17.684 26.8415C17.684 29.065 15.5623 30.1767 11.3189 30.1767C8.2449 30.1767 4.71215 29.5538 0.7207 28.3079V35.2629C4.33088 36.1076 8.02711 36.5375 11.7364 36.5442C16.0529 36.5442 19.567 35.7324 22.2787 34.1087C25.6249 32.1026 27.298 29.1914 27.298 25.3751C27.298 22.7199 26.4443 20.555 24.737 18.8804C23.3003 17.4695 20.4144 15.8096 16.0793 13.9007ZM32.9003 35.8318H42.8222V0.612925H32.9003V35.8318ZM61.4857 20.7469H75.312V14.9346H61.4857V6.98272H77.3691V0.612925H51.923V35.8318H77.7796V29.1035H61.4857V20.7469ZM106.057 23.1154L97.1195 0.612925H84.2566V35.8318H91.2466V10.8962L101.462 36.1903H107.613L118.031 10.8962V35.8318H127.438V0.612925H115.219L106.057 23.1154ZM146.104 20.7469H159.93V14.9346H146.104V6.98272H161.987V0.612925H136.541V35.8318H162.395V29.1035H146.104V20.7469ZM192.625 24.1886L180.427 0.612925H168.926V35.8318H175.918V11.937L188.441 35.8318H199.615V0.612925H192.625V24.1886ZM222.018 13.9007C219.009 12.5576 217.169 11.6787 216.499 11.2639C215.695 10.7505 215.293 10.0874 215.293 9.27483C215.293 7.10222 217.285 6.01592 221.269 6.01592C224.099 6.01592 227.163 6.66893 230.461 7.97497V1.28367C226.026 0.427891 222.637 0 220.294 0C216.044 0 212.597 0.903583 209.952 2.71075C207.276 4.53488 205.938 7.18857 205.938 10.6718C205.938 13.3764 206.857 15.6153 208.695 17.3886C210.113 18.7332 213.16 20.3584 217.836 22.2642C220.442 23.3266 222.061 24.1562 222.694 24.7529C222.992 25.0138 223.229 25.3356 223.389 25.6962C223.549 26.0568 223.629 26.4475 223.622 26.8415C223.622 29.065 221.5 30.1767 217.257 30.1767C214.183 30.1767 210.65 29.5538 206.659 28.3079V35.2629C210.269 36.1076 213.965 36.5375 217.675 36.5442C221.991 36.5442 225.505 35.7324 228.217 34.1087C231.563 32.1026 233.236 29.1914 233.236 25.3751C233.236 22.7199 232.383 20.555 230.675 18.8804C229.238 17.4695 226.353 15.8096 222.018 13.9007Z" fill="#009999"/>
<path d="M28.898 43.7721C25.7959 43.5986 22.6472 43.483 19.4752 43.483C16.3032 43.483 13.1545 43.5986 10.0525 43.7721C7.34612 43.9138 4.79699 45.077 2.92783 47.0231C1.05867 48.9691 0.0111192 51.5506 0 54.2381V68.5782C0.0111192 71.2658 1.05867 73.8472 2.92783 75.7933C4.79699 77.7393 7.34612 78.9025 10.0525 79.0442C13.1545 79.2177 16.3032 79.3333 19.4752 79.3333C22.6472 79.3333 25.7959 79.2177 28.898 79.0442C31.6043 78.9025 34.1534 77.7393 36.0226 75.7933C37.8918 73.8472 38.9393 71.2658 38.9504 68.5782V67.7687H34.4023V68.5782C34.3931 70.1007 33.7996 71.5625 32.7425 72.6666C31.6854 73.7708 30.2441 74.4343 28.7114 74.5225C25.656 74.7075 22.5773 74.8231 19.4752 74.8231C16.3732 74.8231 13.2945 74.7075 10.2391 74.5225C8.70637 74.4343 7.26502 73.7708 6.20795 72.6666C5.15087 71.5625 4.55738 70.1007 4.5481 68.5782V54.2381C4.55738 52.7156 5.15087 51.2538 6.20795 50.1497C7.26502 49.0456 8.70637 48.382 10.2391 48.2939C13.2945 48.1088 16.3732 47.9932 19.4752 47.9932C22.5773 47.9932 25.656 48.1088 28.7114 48.2939C30.2441 48.382 31.6854 49.0456 32.7425 50.1497C33.7996 51.2538 34.3931 52.7156 34.4023 54.2381V59.0952H15.6268V63.7211H38.9504V54.2381C38.9393 51.5506 37.8918 48.9691 36.0226 47.0231C34.1534 45.077 31.6043 43.9138 28.898 43.7721ZM69.7493 43.8299C67.242 43.6218 64.6764 43.483 62.1224 43.483C59.5685 43.483 57.0029 43.6218 54.498 43.8299C51.8761 44.0703 49.4379 45.2687 47.6573 47.1922C45.8767 49.1158 44.8807 51.627 44.863 54.2381V78.9864H49.4111V54.2381C49.4207 52.7186 50.01 51.259 51.0606 50.1528C52.1112 49.0466 53.5451 48.3759 55.0741 48.2754C57.3924 48.1158 59.7434 47.9932 62.1224 47.9932C64.5015 47.9932 66.8548 48.1088 69.1732 48.2754C70.7017 48.3764 72.1351 49.0474 73.1852 50.1536C74.2352 51.2597 74.8242 52.719 74.8338 54.2381V78.9864H79.3819V54.2381C79.3642 51.6274 78.3686 49.1164 76.5884 47.193C74.8083 45.2695 72.3707 44.0709 69.7493 43.8299ZM114.052 43.7721C110.95 43.5986 107.802 43.483 104.63 43.483C101.458 43.483 98.309 43.5986 95.207 43.7721C92.5006 43.9138 89.9515 45.077 88.0824 47.0231C86.2132 48.9691 85.1656 51.5506 85.1545 54.2381V68.5782C85.1656 71.2658 86.2132 73.8472 88.0824 75.7933C89.9515 77.7393 92.5006 78.9025 95.207 79.0442C98.309 79.2177 101.458 79.3333 104.63 79.3333C107.802 79.3333 110.95 79.2177 114.052 79.0442C116.759 78.9025 119.308 77.7393 121.177 75.7933C123.046 73.8472 124.094 71.2658 124.105 68.5782V67.7687H119.557V68.5782C119.548 70.1007 118.954 71.5625 117.897 72.6666C116.84 73.7708 115.399 74.4343 113.866 74.5225C110.81 74.7075 107.732 74.8231 104.63 74.8231C101.528 74.8231 98.449 74.7075 95.3936 74.5225C93.8609 74.4343 92.4195 73.7708 91.3625 72.6666C90.3054 71.5625 89.7119 70.1007 89.7026 68.5782V54.2381C89.7119 52.7156 90.3054 51.2538 91.3625 50.1497C92.4195 49.0456 93.8609 48.382 95.3936 48.2939C98.449 48.1088 101.528 47.9932 104.63 47.9932C107.732 47.9932 110.81 48.1088 113.866 48.2939C115.399 48.382 116.84 49.0456 117.897 50.1497C118.954 51.2538 119.548 52.7156 119.557 54.2381V59.0952H100.781V63.7211H124.105V54.2381C124.094 51.5506 123.046 48.9691 121.177 47.0231C119.308 45.077 116.759 43.9138 114.052 43.7721ZM130.517 54.2358V78.9841H135.065V54.2358C135.065 51.074 137.682 48.3378 140.842 48.3378H150.108V43.8253H140.683C135.729 43.8299 130.517 48.0903 130.517 54.2358ZM182.274 43.7721C179.172 43.5986 176.023 43.483 172.851 43.483C169.679 43.483 166.531 43.5986 163.429 43.7721C160.722 43.9138 158.173 45.077 156.304 47.0231C154.435 48.9691 153.387 51.5506 153.376 54.2381V68.5782C153.387 71.2658 154.435 73.8472 156.304 75.7933C158.173 77.7393 160.722 78.9025 163.429 79.0442C166.531 79.2177 169.679 79.3333 172.851 79.3333C176.023 79.3333 179.172 79.2177 182.274 79.0442C184.98 78.9025 187.53 77.7393 189.399 75.7933C191.268 73.8472 192.315 71.2658 192.327 68.5782V59.0952H169.003V63.7211H187.778V68.5782C187.769 70.1007 187.176 71.5625 186.119 72.6666C185.062 73.7708 183.62 74.4343 182.087 74.5225C179.032 74.7075 175.953 74.8231 172.851 74.8231C169.749 74.8231 166.671 74.7075 163.615 74.5225C162.082 74.4343 160.641 73.7708 159.584 72.6666C158.527 71.5625 157.933 70.1007 157.924 68.5782V54.2381C157.933 52.7156 158.527 51.2538 159.584 50.1497C160.641 49.0456 162.082 48.382 163.615 48.2939C166.671 48.1088 169.749 47.9932 172.851 47.9932C175.953 47.9932 179.032 48.1088 182.087 48.2939C183.62 48.382 185.062 49.0456 186.119 50.1497C187.176 51.2538 187.769 52.7156 187.778 54.2381V55.0476H192.327V54.2381C192.315 51.5506 191.268 48.9691 189.399 47.0231C187.53 45.077 184.98 43.9138 182.274 43.7721ZM233.236 43.8299H227.541L212.089 64.1605C210.713 65.9651 209.971 68.1665 209.976 70.4286V78.9864H214.524V70.4286C214.522 69.1453 214.944 67.8967 215.725 66.8736L233.236 43.8299ZM198.78 43.8299H192.842L209.043 62.974L211.851 59.2757L198.78 43.8299Z" fill="#641E8C"/>
</svg>
