<svg width="32" height="32" viewBox="0 0 32 32" fill="none" xmlns="http://www.w3.org/2000/svg">
<path d="M5.12003 1.92749C4.0401 1.92749 3.09474 2.23464 2.40253 2.79374C1.71032 3.35285 1.28753 4.18125 1.28753 5.08624C1.28753 6.84212 2.86 8.20125 4.93878 8.28249C4.99741 8.30126 5.05847 8.31137 5.12003 8.31249C6.24231 8.31249 7.19759 7.98352 7.88003 7.40124C8.56247 6.81896 8.95253 5.97947 8.95253 5.08624C8.95244 5.07456 8.95202 5.06289 8.95128 5.05124C8.85271 3.28427 7.27989 1.92749 5.12003 1.92749ZM5.12003 3.19249C6.78983 3.19249 7.61339 4.01237 7.68378 5.10249C7.67923 5.63515 7.47303 6.08761 7.06003 6.43999C6.64247 6.79627 5.99775 7.04749 5.12003 7.04749C3.45478 7.04749 2.55253 6.14346 2.55253 5.08624C2.55253 4.55763 2.76974 4.12303 3.19753 3.77749C3.62532 3.43196 4.27996 3.19249 5.12003 3.19249ZM1.92003 9.59999C1.7503 9.60001 1.58752 9.66744 1.4675 9.78746C1.34748 9.90748 1.28005 10.0703 1.28003 10.24V28.8C1.28005 28.9697 1.34748 29.1325 1.4675 29.2525C1.58752 29.3725 1.7503 29.44 1.92003 29.44H8.32003C8.48976 29.44 8.65254 29.3725 8.77256 29.2525C8.89258 29.1325 8.96001 28.9697 8.96003 28.8V22.825V10.24C8.96001 10.0703 8.89258 9.90748 8.77256 9.78746C8.65254 9.66744 8.48976 9.60001 8.32003 9.59999H1.92003ZM11.52 9.59999C11.3503 9.60001 11.1875 9.66744 11.0675 9.78746C10.9475 9.90748 10.88 10.0703 10.88 10.24V28.8C10.88 28.9697 10.9475 29.1325 11.0675 29.2525C11.1875 29.3725 11.3503 29.44 11.52 29.44H17.92C18.0898 29.44 18.2525 29.3725 18.3726 29.2525C18.4926 29.1325 18.56 28.9697 18.56 28.8V18.56V18.4V18.24C18.56 16.9956 19.5556 16 20.8 16C22.0445 16 23.04 16.9956 23.04 18.24V28.8C23.04 28.9697 23.1075 29.1325 23.2275 29.2525C23.3475 29.3725 23.5103 29.44 23.68 29.44H30.08C30.2498 29.44 30.4125 29.3725 30.5326 29.2525C30.6526 29.1325 30.72 28.9697 30.72 28.8V17.92C30.72 15.279 29.9443 13.1868 28.6363 11.76C27.3283 10.3331 25.5035 9.59999 23.5438 9.59999C21.0451 9.59999 19.5339 10.5127 18.56 11.265V10.24C18.56 10.0703 18.4926 9.90748 18.3726 9.78746C18.2525 9.66744 18.0898 9.60001 17.92 9.59999H11.52ZM2.56003 10.88H7.68003V22.825V28.16H2.56003V10.88ZM12.16 10.88H17.28V12.5687C17.2801 12.6982 17.3194 12.8247 17.3928 12.9314C17.4662 13.038 17.5702 13.12 17.6912 13.1663C17.8121 13.2126 17.9442 13.2211 18.0701 13.1908C18.196 13.1604 18.3097 13.0926 18.3963 12.9962C18.3963 12.9962 20.2943 10.88 23.5438 10.88C25.1904 10.88 26.634 11.4702 27.6925 12.625C28.7511 13.7797 29.44 15.5274 29.44 17.92V28.16H24.32V18.24C24.3208 18.1497 24.3025 18.0602 24.2663 17.9775C24.1242 16.169 22.6434 14.72 20.8 14.72C18.8637 14.72 17.28 16.3036 17.28 18.24V18.4V18.56V28.16H12.16V10.88Z" fill="#FDFDFD"/>
</svg>
