<svg width="32" height="32" viewBox="0 0 32 32" fill="none" xmlns="http://www.w3.org/2000/svg">
<path d="M15.6174 5.76001C11.3924 5.76001 7.42492 6.08001 5.31242 6.52751C3.90492 6.84751 2.68742 7.80751 2.43242 9.28001C2.17742 10.815 1.91992 13.12 1.91992 16C1.91992 18.88 2.17492 21.12 2.49492 22.72C2.75242 24.1275 3.96742 25.1525 5.37492 25.4725C7.61742 25.92 11.4549 26.24 15.6799 26.24C19.9049 26.24 23.7424 25.92 25.9824 25.4725C27.3924 25.1525 28.6074 24.1925 28.8624 22.72C29.1199 21.12 29.4399 18.8175 29.5024 15.9375C29.5024 13.0575 29.1824 10.7525 28.8624 9.15251C28.6074 7.74501 27.3924 6.72001 25.9824 6.40001C23.7424 6.08001 19.8399 5.76001 15.6174 5.76001ZM15.6174 7.04001C20.2249 7.04001 23.9349 7.42251 25.7274 7.74251C26.6874 8.00001 27.4549 8.64001 27.5824 9.47251C27.9674 11.52 28.2224 13.6975 28.2224 15.9375C28.1599 18.6875 27.8399 20.9275 27.5824 22.5275C27.3924 23.7425 26.1124 24.1275 25.7274 24.2575C23.4224 24.705 19.5824 25.0225 15.7424 25.0225C11.9024 25.0225 7.99992 24.7675 5.75992 24.2575C4.79992 24 4.03242 23.36 3.90492 22.5275C3.39242 20.735 3.19992 18.3675 3.19992 16C3.19992 13.055 3.45742 10.88 3.71242 9.53751C3.90492 8.32001 5.24742 7.93501 5.56742 7.80751C7.67992 7.36001 11.5849 7.04001 15.6174 7.04001ZM12.1599 10.88V21.12L21.1199 16L12.1599 10.88ZM13.4399 13.0575L18.5599 16L13.4399 18.9425V13.0575Z" fill="#FDFDFD"/>
</svg>
